<svg xmlns="http://www.w3.org/2000/svg" viewBox="0 0 270 270.5"><defs><style>.cls-1{fill:#4bd4f9;}.cls-2{fill:#2baf49;}</style></defs><title>africa</title><g id="Layer_2" data-name="Layer 2"><g id="Layer_3" data-name="Layer 3"><g id="africa"><rect class="cls-1" width="270" height="270.5"/><polygon class="cls-2" points="192 236 181 236 181 223 170 223 170 191 162 191 162 164 168 164 168 150 158 150 158 126 146 126 146 122 126 122 126 126 114 126 114 117 103 117 103 111 93 111 93 95 97 95 97 71 102 71 102 63 110 63 110 48 119 48 119 40 139 40 139 33 156 33 162 33 162 44 173 44 173 51 183 51 183 42 217 42 217 37 228 37 228 29 233 29 233 12 227 12 227 18 215 18 215 24 203 24 203 8 193 8 193 18 184 18 184 8 173 8 173 1 166 1 166 6 170 6 170 11 180 11 180 19 176 19 176 30 166 30 166 24 173 24 173 16 165 16 165 11 159 11 159 1 153 1 153 6 145 6 145 15 139 15 139 29 134 29 134 34 115 34 115 6 134 6 134 0 270 0 270 92 263 92 263 81 255 81 255 69 245 69 245 57 236 57 236 46 226 46 226 58 230 58 230 75 240 75 240 84 250 84 250 94 257 94 257 101 270 101 270 131 262 131 262 138 256 138 256 144 248 144 248 168 254 168 254 186 242 186 242 192 229 192 229 213 223 213 223 224 215 224 215 233 208 233 208 236 192 236"/><polygon class="cls-2" points="0 142.5 11.29 142.5 11.29 147 13.86 147 13.86 150.83 17.5 150.83 17.5 164.83 15 164.83 15 173.17 11.14 173.17 11.14 196.67 9.57 196.67 9.57 213 4.14 213 4.14 217 0 217 0 142.5"/></g></g></g></svg>