<svg xmlns="http://www.w3.org/2000/svg" viewBox="0 0 270.54 270.5"><defs><style>.cls-1{fill:#4bd4f9;}.cls-2{fill:#2baf49;}</style></defs><title>canada-russia</title><g id="Layer_2" data-name="Layer 2"><g id="Layer_2-2" data-name="Layer 2"><g id="canada-russia"><rect class="cls-1" x="0.04" width="270.5" height="270.5"/><path class="cls-2" d="M134.5,270v-5.42h-3.92v-5.66h-4.5v-5.75h5.5v-2.09h7v-1.75h1.75V244h3.42v-8.75h7v-5.67h-2.13V221.5H152V226h1.75v5.62h8.75v-5.25h5.75v-1.62h2.62v-15.5h-2.62v-4.13h-2.63V197.5h-4v2.12H159v9.63h1.87V215h1.88v9.12h-2v4.13H156v-7.88h-2.25V216h-4.63v3.75h-5v-6h-2v-8h2.38v-3.63h4V186.87h3.14V182h2.63v-6.13h14.5V180h2.12v5.62h3.88V171.87h1.87l1.82-1.81v-9.44h2.18v-9h-4.37V142.5h-2.5V137h-4.13v-7.13h-3v-8.5h5.5V114.5h-4.87v-9.13h-3.38v-4.25h-3v-3h-3.12v-4.5h-4.4v-6H139.5V85.25h-2.63V82.62H124V87.5h-4.25v7.87h-17v3.25H99.37v4H97.5v5.63H95.12v3.5h7v1.62h2.5v4.75h6.25v12.5h4.75v5.5h4.13v12.5h8.62v7h3.5v3.75h-5v12.5h-9.25v4.44h-4.87v5.44h-6v4H94.37v2H88.12v3.5H84.75v2.87H78v-4h3V179.87h4.12V171H96.37v-4.5H101v-7.88h3.5V147h9v-5H97.87v5H93.62v4.12h-2.5v6H81.5v3.75H74v5.25H64.37V174h-4v5.25H56.25v10.62h-4.5v6.88h-6v3H40.87V204h2v4.75H39.5v4.37H34.87v2H31.12V209H29v-8.63h1.37v-3.12H40.62V195h4.75v-2.5h-8.5v-2.25H30V188H23v4.12H17.87v4H8.62v-3.5H5.37v-4.87H0V45.37H5.75V48h6.37v3.75h4.13v2.62h7.5v3.38h3.5v5.37H32.5V66h9.87v2.87H51.5v2.75H61.62v2.63H87.75V71.62h6.37v-3H98v-12h4.12v1.63h17.75V72.37h3.75v5.88h3.25V70.12H133v4.63h5V65.12h3.62V62.87H148v-5h4.12V61.5H159V56.62h3V48.37h3.5V42.75h5.62V39.12H178V43.5h-2.25v9.25H171.5v5h-5.75v3.62h-3.5v6.25h4.62V65.75h4.38V61.62h4.87v4.75h4.5v3.75h4.25v2.13h3.5V69.5h13V62h-6.12V53.5H200V42.25h8.25V37h5.25v7h7V39.25h18v-5.5h5V39h11.25V35.5h9.75v-5h6V235.25H265V231.5h-6V226H243.25v-5H233.5v5h4.25v3.75H246v4.5h12.5V241H262v7.5h8.54V270H215.75v-9.5h6v-3.75h7V260H234v-3.75h4.75V247h-5.5v-2.75h-12v-4H216V236h-5v8.75h-8V258.5h1.75V270H134.5M41,147.08v1.42h-4.5V153H31.79v3.5H36v-1.75h3V153.5h3v2.17h2.58v1.25H52v-2.17h1.83v-2.08H62v-4.42h3.08v-5.5H67v-8H64.29v-1.92h-2.5v-3h-8v2.42h-4V135h-2.5v7.25H43.46V147Z"/><polygon class="cls-2" points="116.71 241.67 116.71 237.42 118.71 237.42 118.71 230.92 121.71 230.92 121.71 228.5 125.12 228.5 125.12 231.92 126.87 231.92 126.87 236.75 125.62 236.75 125.62 241.67 121.79 241.67 121.79 244.08 117.04 244.08 117.12 241.75 116.71 241.67"/><polygon class="cls-2" points="125.29 226.42 125.29 222.67 126.87 222.67 126.87 217.67 129.79 217.67 129.79 215.75 132.29 215.75 132.29 221.08 133.79 221.08 133.79 225.67 132.87 225.67 132.87 229.92 135.58 229.92 135.58 233.83 137.46 233.83 137.46 239.5 139.79 239.5 139.79 242.58 137.71 242.58 137.71 247.33 135.58 247.33 135.58 248.17 129.12 248.17 129.12 249.42 125.87 249.42 125.87 245.75 127.62 245.75 127.62 239.75 128.87 239.75 128.87 232.58 127.96 232.58 127.96 229.67 126.46 229.67 126.46 226.42 125.29 226.42"/><polygon class="cls-2" points="111.87 197.83 111.87 195.33 113.87 195.33 113.87 192.92 119.04 192.92 119.04 191.58 120.29 191.58 120.29 194.71 121.79 194.71 121.79 197.83 119.71 197.83 119.71 199.83 114.21 199.83 114.21 197.92 111.87 197.83"/><path class="cls-2" d="M216.41,16.25s10.5.5,10.5,0v2.87h4.38V11.87h5.37V7h3.63V3.5h3.87V0h21.25V3.37H260v3.5H246V9.81h-3.5V15h-5.38v8.25h-5.87v2.12H220.16V23.25h-3.75Z"/></g></g></g></svg>