<?xml version="1.0" encoding="utf-8"?>
<!-- Generator: Adobe Illustrator 22.0.1, SVG Export Plug-In . SVG Version: 6.00 Build 0)  -->
<svg version="1.1" id="Layer_1" xmlns="http://www.w3.org/2000/svg" xmlns:xlink="http://www.w3.org/1999/xlink" x="0px" y="0px"
	 viewBox="0 0 249.9 249.9" style="enable-background:new 0 0 249.9 249.9;" xml:space="preserve">
<style type="text/css">
	.st0{display:none;fill:#FF7BFF;}
	.st1{fill:#FF7BFF;}
	.st2{fill:#9E9996;}
	.st3{fill:#7A7978;}
	.st4{fill:#B7B7B7;}
	.st5{display:none;}
	.st6{display:inline;opacity:0.8;fill:#121403;enable-background:new    ;}
	.st7{display:inline;fill:#212121;}
	.st8{display:inline;fill:#3F3F3F;}
	.st9{display:inline;fill:#FFFFFF;}
	.st10{display:inline;}
	.st11{display:inline;fill:#121403;}
	.st12{display:inline;fill:#1C1C1C;}
	.st13{fill:#7F7F7F;}
	.st14{fill:#898888;}
	.st15{fill:#706F6F;}
	.st16{fill:#898989;}
	.st17{fill:#707070;}
</style>
<g id="svg2" xmlns:cc="http://creativecommons.org/ns#" xmlns:dc="http://purl.org/dc/elements/1.1/" xmlns:rdf="http://www.w3.org/1999/02/22-rdf-syntax-ns#" xmlns:svg="http://www.w3.org/2000/svg">
	<g id="layer1" transform="translate(-155.4696,-191.61838)">
		<path id="path3336-7" class="st0" d="M182.3,307.6c-7.8-63.6,29.4-95.2,93-103c63.6-7.8,121.4,37.4,129.3,101
			s-37.6,138.3-101,129.3C230.3,424.6,190.1,371.2,182.3,307.6z"/>
		<path id="path3336" class="st1" d="M186.7,389.9c-5.1-23.4,8.2-42.6,0.5-47.8c-3.5-2.3-6.7,1.2-10-1.5c-6.5-5.1,4.6-18.7-1.4-35.8
			c-2.1-6-5.5-10.1-3.9-15.5c1.1-3.5,3.2-4.2,5.8-8.9c3.5-5.9,3.8-11.1,4.2-13.8c3-16.9,33.1-41.4,53.4-36.1
			c4.4,1.1,10.4,4.3,13.7,1.5c2.2-1.9,1.3-4.8,2-7.9c2.2-10.1,19.6-14.3,51.5-21.6c8.4-2,12.4-2.6,17.6-1.9
			c10,1.2,12.4,5.7,18.8,4.3c8-1.7,9.1-9.8,15.8-10.1c5.9-0.3,10.5,5.9,12.9,9c8.7,11.5,8.2,26.4,7.8,37.7c-0.1,4.9-0.5,4.9-0.4,8.7
			c0.2,6.2,0.5,21.1,8.8,25.5c4.6,2.5,0,0,11.9,2.7c4.8,1.1,6,9.1,3.9,12.3c-1.5,2.4-4.3,1.6-6.4,4.2c-2.2,2.8-0.6,6-0.8,9.5
			c-0.6,10.7-17,14.2-16.4,21.2c0.4,4.6,7.7,4.1,12.9,10.9c6.1,8.1,3.4,19.2,1.8,30.3c-0.7,4.6-3.1,19.4-13.5,32.4
			c-17.9,22.6-47.8,25.3-61.8,26.6c-24.6,2.2-24.6-5.3-44.2-0.9c-21.5,4.8-30.8,15.9-46.1,11.4c-6.7-2-10.8-6-17-11.7
			C203.8,420.3,190.6,408,186.7,389.9z"/>
		<path id="path3336_1_" class="st2" d="M192.2,386.2c-4.9-22.2,7.8-40.5,0.5-45.4c-3.3-2.2-6.3,1.1-9.5-1.4
			c-6.2-4.9,4.4-17.8-1.4-34c-2-5.7-5.3-9.5-3.7-14.8c1-3.3,3.1-4,5.6-8.4c3.2-5.6,3.6-10.6,4-13.1c2.8-16.1,31.5-39.3,50.7-34.3
			c4.2,1.1,10,4.1,13.1,1.5c2.1-1.8,1.2-4.5,1.9-7.5c2.1-9.6,18.6-13.6,48.9-20.5c8-1.8,11.8-2.5,16.8-1.9
			c9.4,1.2,11.8,5.4,17.9,4.2c7.7-1.6,8.7-9.3,15-9.6c5.6-0.2,10,5.6,12.3,8.6c8.3,10.9,7.8,25.1,7.5,35.8c-0.2,4.6-0.4,4.7-0.4,8.3
			c0.1,5.8,0.6,20,8.4,24.2c4.4,2.4,0,0,11.4,2.6c4.5,1,5.6,8.7,3.8,11.7c-1.4,2.3-4.1,1.4-6.1,4c-2.1,2.7-0.6,5.7-0.8,9
			c-0.5,10.2-16.1,13.5-15.6,20.2c0.4,4.4,7.3,3.9,12.3,10.5c5.8,7.7,3.3,18.3,1.7,28.8c-0.7,4.3-3,18.4-12.9,30.9
			c-17,21.5-45.4,24-58.6,25.3c-23.4,2.1-23.4-5.1-42-0.9c-20.4,4.6-29.3,15.1-43.9,10.8c-6.4-1.9-10.3-5.7-16.1-11.1
			C208.5,415.1,195.9,403.4,192.2,386.2z"/>
	</g>
	<path class="st3" d="M53,215.3c5.9,10.5,11.9,14.7,13.4,15.7c2.6,1.7,6.8,4.5,12.8,5c3.7,0.3,5.5-0.5,17-4.4
		c13.5-4.6,17.6-5.6,19.6-6.2c6.2-1.5,9.4-3.1,14.2-2.7c4.1,0.3,6.3,1.7,9,2.6c8.3,3.1,16,1.8,26.7,0c5.6-1,14.5-2.5,24.5-8.2
		c10.9-6.1,17.2-13.5,21.8-19c1.6-2,7.9-9.7,13.3-21.6c4.4-9.8,6.7-14.8,5.2-18.9c-2.7-7.4-12-7.2-17-17.8c-1.9-4.2-1.7-6.7-3-6.9
		c-3.3-0.4-4.1,17.4-15.6,33.3c-2.3,3.2-13.9,19.2-31.5,21.5c-10.7,1.3-11.7-3.9-22.6-2.8c-15.8,1.7-17.1,12.8-35.2,17.7
		c-14.1,3.9-26.9,0.8-30.6-0.2c-17.7-4.5-25.3-14.9-28.9-12.2C42,193.5,49.9,209.7,53,215.3z"/>
	<path class="st4" d="M39.9,165.4c-1.9-1.1,4.4-12.2-0.2-16.6c-3.2-3.1-9.3-0.4-11.2-3.8c-0.9-1.6-0.2-3.4,0.3-5.6
		c1.1-4,1-8.3,0.6-16.8c-0.4-13.1-6-14.2-3.9-21.4c1.6-5.6,5.1-5.3,8.6-13.3c2.9-6.4,1.3-8.1,3.3-13.8c3.7-10.8,13.8-16.8,22.6-22
		c7.9-4.6,11.8-7,17.6-7.1c9.8-0.2,14.2,5.9,19.4,3.3c5.5-2.8,2-10.5,8.5-15.5c2.7-2,4-1.2,19-5c0.7-0.2,3.7-0.9,6.8-1.8
		c19.6-5.4,21.9-9,28.5-7.5c5.6,1.2,5.3,4,12.6,5.5c3.5,0.7,8.6,1.7,13.5-0.7c5.6-2.8,5.4-7.8,10-8.7c4.5-0.9,8.8,3.2,9.9,4.2
		c2.7,2.6,5,6.5,6.6,19.6c0.9,7.3,1.9,15.5,1.2,27.3c-0.4,8.1-1.3,11.5,0.7,16.8c0.4,1.3,3.8,9.9,10,10.7c3,0.4,4.8-1.5,6-0.5
		c2.3,1.8,0.9,10.4-4.2,14.1c-6.7,4.9-19.2,0.4-26.1-6.6c-2.7-2.8-2.8-4.1-8.4-16.6c-6.3-14.3-9.7-21.5-13.4-25.5
		c-2.5-2.5-9.4-9.6-20.3-10.9c-10.8-1.2-19.2,4-21.3,5.4c-16.7,10.8-11.9,28.6-24.8,33.9c-9.5,4-14.4-4.7-29.4-0.9
		c-3.4,0.9-13.5,3.4-19,11.7c-7.3,11,1.7,19.8-2.2,37.7C57.3,154.2,42.2,166.6,39.9,165.4z"/>
	<g class="st5">
		<path class="st6" d="M113.2,157c1.7,1.9,5.8,1.9,13.9,1.7c6-0.2,7.6-0.7,8.5-1c3-1.1,8.5-4.2,8.2-7.7c-0.3-3.5-6.4-5.6-8.3-6.3
			c-1.9-0.6-3.3-0.8-14.7-0.4c-5.9,0.2-7,0.3-8,1.4C110.1,147.4,110.4,153.9,113.2,157z"/>
		<path class="st6" d="M111.1,121.7c1.7,1.9,5.8,1.9,13.9,1.7c6-0.2,7.6-0.7,8.5-1c3-1.1,8.5-4.2,8.2-7.7c-0.3-3.5-6.4-5.6-8.3-6.3
			c-1.9-0.6-3.3-0.8-14.7-0.4c-5.9,0.2-7,0.3-8,1.4C108,112.1,108.2,118.6,111.1,121.7z"/>
		<path class="st7" d="M113.1,157.1c1.6,1.6,5.3,1.5,12.8,1.2c5.5-0.2,6.9-0.7,7.8-1c2.8-1,7.9-3.7,7.6-6.5c-0.3-3-5.9-4.6-7.6-5.1
			c-1.7-0.5-3-0.7-13.6-0.2c-5.4,0.2-6.4,0.3-7.4,1.3C110.2,149.1,110.4,154.6,113.1,157.1z"/>
		<path class="st7" d="M111.1,122.2c1.6,1.6,5.3,1.5,12.8,1.2c5.5-0.2,6.9-0.7,7.8-1c2.8-1,7.9-3.7,7.6-6.5c-0.3-3-5.9-4.6-7.6-5.1
			c-1.7-0.5-3-0.7-13.6-0.2c-5.4,0.2-6.4,0.3-7.4,1.3C108.3,114.3,108.5,119.7,111.1,122.2z"/>
		<path class="st8" d="M114.6,154.7c-0.3-1.1,0.8-2.2,0.9-2.4c3-3.4,9.8,1.6,15.8-1c0.2-0.1,2.1-0.9,4.7-1c0.9,0,2.3,0,2.7,0.7
			c0.5,0.8-0.8,2.2-1.1,2.7C133.5,158.6,115.7,158.9,114.6,154.7z"/>
		<path class="st8" d="M112.2,119.2c-0.3-1.1,0.8-2.2,0.9-2.4c3-3.4,9.8,1.6,15.8-1c0.2-0.1,2.1-0.9,4.7-1c0.9,0,2.3,0,2.7,0.7
			c0.5,0.8-0.8,2.2-1.1,2.7C131.1,123.1,113.2,123.4,112.2,119.2z"/>
		<path class="st9" d="M120.9,155.9c-0.7,1.3-4.2,1.6-6.1-0.2c-1.8-1.7-1.2-4.5-1.1-5c0.1-0.7,0.5-2.3,1.9-3.3
			c1.8-1.3,4.7-1.1,5.4,0.1c0.6,1-1.1,2.1-1.1,4.6C120,154.3,121.4,154.9,120.9,155.9z"/>
		<path class="st9" d="M118.8,120.8c-0.7,1.3-4.2,1.6-6.1-0.2c-1.8-1.7-1.2-4.5-1.1-5c0.1-0.7,0.5-2.3,1.9-3.3
			c1.8-1.3,4.7-1.1,5.4,0.1c0.6,1-1.1,2.1-1.1,4.6C117.9,119.2,119.3,119.9,118.8,120.8z"/>
		<path class="st10" d="M160.3,106.4c-1.7,0.2-3.1,0.4-4.9-0.2c-5.2-2-8.7-9.9-6.1-15c1.6-3.4,5.8-4.2,14.1-5.8c5-1,7-0.5,8.3,0.7
			c1.4,1.2,1.9,3.1,2.3,4.7c0.2,0.7,0.8,3.2,0.2,5.6C172.8,102.2,165.8,105.7,160.3,106.4z"/>
		<path class="st11" d="M42.4,273.5"/>
		<path class="st12" d="M167,89.9c-2.4-0.5-4.4,0.1-7.2,0.9c-2.9,0.9-5.1,1.6-6.6,3.6c-1.4,2-1.2,4.2-1.6,4.2c-0.6,0-1.7-3.3-0.5-6
			c1.3-2.7,4.3-3.6,8.3-4.8c3.5-1,5.5-1.6,7.9-0.7c3.8,1.4,5.6,5.8,5.3,6.2C172.1,93.5,170.5,90.8,167,89.9z"/>
	</g>
	<path class="st13" d="M39.5,187c2.3,1.2,6.6-3.2,9.1-5.6c3.8-3.7,11.4-11.2,13.7-23.7c1.7-9.4-0.6-16.7-2.6-23.8
		c-1.4-4.5-4.3-14-12.5-23.1c-6.8-7.7-17.6-15.5-20.8-13.2c-0.9,0.7-1,2.1-0.9,4.6c0,6.4,2.6,9.1,4.2,14.6c1.8,6.5,1,12.3,0.6,15.2
		c-1,7.1-3.5,11.7-2,12.9c1.3,1,3.6-1.9,7.2-1.2c2.8,0.7,4.4,3.3,5.3,4.8c1.4,2.4,2,4.8,2.1,7.5c0.3,6-1.9,8.5-3.5,15.4
		C39.1,173,36.3,185.3,39.5,187z"/>
	<path class="st13" d="M70.6,295.4"/>
	<path class="st14" d="M100.8,198.2c-2.7-8.6,1.4-16.6,2.8-19.3c4.5-8.7,11.8-12.7,16-14.9c4.7-2.5,11.5-6.1,20.5-4.9
		c2.3,0.3,11.5,1.9,18.1,10.2c6.2,7.9,7.2,18.6,4.2,26.9c-5.3,14.6-22.6,20.3-35.4,19.1C118.4,214.4,104.5,209.8,100.8,198.2z"/>
	<path class="st14" d="M69.9,59c2.1,2.2,5.4,5.5,11.1,7.8c4.3,1.7,7.8,1.9,11,2.2c4.7,0.3,11,0.6,18.2-2.5c2-0.8,9.9-4.5,15.2-13.4
		c3.6-6.2,4.1-11.5,4.2-13.6c0.1-2.8,0.2-5.6-1.7-8c-2.7-3.4-7.4-3.5-9.1-3.6c-6.1-0.2-13,3.2-16.5,8.9c-3.4,5.5-1.1,9-4.5,11.3
		c-1.9,1.3-6.2,0.7-14.6-0.8c-5.3-0.9-7.1-1.5-10.4-1.1c-2.3,0.3-7.5,0.8-8.4,3.7C63.4,52.4,66.4,55.5,69.9,59z"/>
	<path class="st15" d="M102.8,195.1c-1,0.9,1.5,6.5,5.8,10.5c4.3,4.2,9,5.6,11.5,6.3c1.3,0.3,5.6,1.6,11.7,1.2
		c3.2-0.2,12.3-1,20.4-7.9c2.5-2.2,7.5-6.4,9.3-14.1c0.5-2.1,1.5-8-1.3-14.3c-2.7-6-7.9-10.3-9-9.7c-1.5,0.9,7.4,10.4,4.6,20.3
		c-1.3,4.7-4.9,7.7-8.1,10.5c-2.1,1.8-7.5,6.2-15.7,7.4c-5,0.6-8.8-0.3-10.2-0.6c-3.2-0.8-5.5-2-9.7-4.4
		C105.5,196.7,103.4,194.5,102.8,195.1z"/>
	<path class="st16" d="M126,97c0.6,2.8,3.2,12.7,11.9,21.9c9,9.7,19.2,12.9,21.8,13.7c15.4,4.6,28.2-0.3,32.1-1.8
		c6.3-2.6,15.8-6.2,20.8-15.9c4.4-8.6,2.7-17.1,0.8-26.6c-1.4-6.5-3.6-17.7-13.1-28.1c-3.7-4-12.8-14.1-27.5-15.6
		c-15.2-1.6-26.6,6.9-32.1,11c-4,3-8.7,6.5-12.2,13C122.1,80.4,124.9,92.4,126,97z"/>
	<path class="st17" d="M137.7,113.8c2.3,2.9,5.5,6.9,11.1,10.3c5.9,3.6,11.2,4.7,15,5.5c8.4,1.6,15.2,0.8,17.8,0.4
		c6.5-1,15.2-2.3,22.2-9.6c1.6-1.6,6.1-6.6,7.9-14.5c0.3-1.3,1.1-5.6-0.6-14.7c-2.3-12.2-7.2-22.4-8.2-22.2
		c-1,0.3,5.2,12.2,3.5,28.1c-0.7,6.4-2,16.8-10.1,23.2c-9,7.1-21.1,4.8-26.2,4c-9-1.7-15.3-6-22.4-10.6c-10.7-7.1-15.9-13.6-17-12.7
		C129.6,102.1,133.8,109.1,137.7,113.8z"/>
</g>
<g id="Layer_2_1_">
</g>
</svg>
