<?xml version="1.0" encoding="utf-8"?>
<!-- Generator: Adobe Illustrator 22.0.1, SVG Export Plug-In . SVG Version: 6.00 Build 0)  -->
<svg version="1.1" id="Layer_1" xmlns="http://www.w3.org/2000/svg" xmlns:xlink="http://www.w3.org/1999/xlink" x="0px" y="0px"
	 viewBox="0 0 249.9 249.9" style="enable-background:new 0 0 249.9 249.9;" xml:space="preserve">
<style type="text/css">
	.st0{display:none;fill:#FF7BFF;}
	.st1{display:none;fill:#FF8BFD;}
	.st2{fill:#FF8BFD;}
	.st3{fill:#9E997F;}
	.st4{fill:#A8A8A8;}
	.st5{display:none;fill:#A3A3A3;}
	.st6{display:none;fill:#161616;}
	.st7{display:none;}
	.st8{display:inline;opacity:0.8;fill:#121403;enable-background:new    ;}
	.st9{display:inline;fill:#212121;}
	.st10{display:inline;fill:#3F3F3F;}
	.st11{display:inline;fill:#FFFFFF;}
	.st12{display:inline;opacity:0.93;enable-background:new    ;}
	.st13{display:inline;}
	.st14{display:inline;fill:#121403;}
	.st15{fill:#7F7F7F;}
	.st16{fill:#636363;}
</style>
<g id="svg2" xmlns:cc="http://creativecommons.org/ns#" xmlns:dc="http://purl.org/dc/elements/1.1/" xmlns:rdf="http://www.w3.org/1999/02/22-rdf-syntax-ns#" xmlns:svg="http://www.w3.org/2000/svg">
	<g id="layer1" transform="translate(-155.4696,-191.61838)">
		<path id="path3336-7" class="st0" d="M400.4,275.4c35.2,45-9.6,114.1-67.8,137s-122.2-1.4-142.9-54.2s-9.5-96,48.7-118.8
			S359.9,223.4,400.4,275.4z"/>
		<path id="edr" class="st1" d="M394.1,272.7c3.9,7.7,11,24.4,9.1,46.8c-1.9,22.9-12.2,39.4-15.6,44.6
			c-13.6,20.4-31.4,30.7-40.1,35.6c-7.5,4.2-25.4,14.1-50.7,15.9c-23,1.7-39.9-4-45.2-6.1c-23.3-8.8-35.8-23.7-41.1-30.2
			c-8.5-10.4-12.1-19.6-19.3-37.9c-10.2-25.9-10.2-39.4-10.1-44.2c0.2-8.8,0.6-17.2,6.4-25.9c1.6-2.4,6.7-9.5,26.9-19.4
			c19.6-9.6,37-13.8,46.9-15.8c9.2-1.8,26.7-5.2,49.3-3.5c19.3,1.4,34.8,6,45.3,10"/>
		<path id="path3336_1_" class="st2" d="M309.8,206c33.4-11.5,39.3-11.2,44.6-9.1c14.6,5.7,19.7,23.3,27.1,49.1
			c2.8,9.9,6.3,22.6,7.4,40.4c1.4,24,3.1,52.9-15,82.1c-20,32.2-52.2,45.5-68.2,52.1c-22.4,9.2-45.5,18.9-68.4,10.3
			c-26.6-10.1-43.1-41.3-34.5-56.8c4.7-8.5,15.3-9.4,18.3-20.4c2.5-9-2-17.7-3.5-20.7c-4.8-9.2-10.1-9.6-13-16.4
			c-3.3-7.9,0.1-16.4,4.8-26.5c13.8-29.7,20.6-44.7,30.8-53.8C251.3,226.1,270.7,219.5,309.8,206z"/>
		<path id="path3336" class="st3" d="M309.1,211.4c32.2-11.1,37.9-10.8,43-8.9c14.1,5.3,18.8,22,25.7,46.4c2.7,9.4,6,21.3,6.9,38.2
			c1.2,22.9,2.6,50.3-14.8,78c-19.3,30.6-50.3,43.4-65.8,49.8c-20.9,8.7-43.3,18.2-65.8,10.1c-22.3-8-39.4-31.4-33.6-46
			c3.8-9.4,14.8-9.4,19.6-22.1c3-8.4,2.1-18.3-2.3-25.6c-4.6-7.8-9.8-7.4-13-14.1c-3.4-7.1-1.2-15,3.2-25.7
			c10.6-25.7,15.8-38.7,29.8-51.2C252.8,230.6,271.6,224.1,309.1,211.4z"/>
	</g>
	<path class="st4" d="M128.5,32.8c-10.4,1.2-37,14.7-57.7,48.9c-7.2,11.8-15.3,25.5-10.2,36.1c1.5,3,2.8,3.3,8.4,11.5
		c6.2,9,9.3,13.4,10.4,18.3c0.3,1.2,3.5,15.8-5.5,25.7c-6.7,7.5-14.1,5.5-17.9,12.3c-3.5,6.3-0.1,13.6,2.1,18.6
		c6.4,14.2,19.7,20.5,22.5,21.8c2,0.9,21.4,9.4,43.2,1c14.1-5.5,26.7-16.8,24.8-21.2c-1.9-4.3-16.1,3.3-28.5-3.2
		c-14.8-7.9-16.2-30.2-16.3-33.3c-0.6-9.5,1.8-15.4,0.2-29.9c-0.4-3.8-1.1-8-2.8-12.8c-2.5-7.2-4.7-8.4-6.3-12.8
		c-2.9-8.1,0.2-16.1,4.3-26.2c0.9-2.1,4.1-9.8,13.7-23.9c12-17.8,21.5-27.3,19-30.2C131.5,32.6,130.2,32.5,128.5,32.8z"/>
	<path class="st5" d="M126.5,141.4"/>
	<path class="st6" d="M85.9,163.8c-4,3.4-9.3-0.3-18.3,1.3c-3.1,0.6-8.6,1.5-12.1,5.6c-5.5,6.5-1.7,15.8-0.6,18.2
		c0.9,2.3,2.2,5.2,4.7,5.6c3.5,0.5,6.8-4.3,8.6-3.3c1.1,0.5,0.1,2.4,1,4.7c1.5,3.6,5.3,3.3,5.9,5.6c0.9,3.2-5,9.5-10.3,9.3
		c-4.7-0.1-7.2-5.4-10.2-11.9c-4.4-9.4-10.2-22.1-3.2-31.1c3.3-4.2,8.1-5.7,14-7.7c9.3-3,21.2-3.7,22.4-0.5
		C88.3,161,87.1,162.8,85.9,163.8z"/>
	<path class="st6" d="M228.6,100.6c1.8,1,3.7-1.6,6.5-1.4c2,0.2,4.1,1.6,9.4,12.6c3.6,7.5,5.4,11.3,5.2,13.9
		c-0.8,7.1-7.2,9.5-6,13.6c1.3,4.3,9.7,6.8,13.1,4.3c3.4-2.5,1.6-9.6-0.7-18.8c-1.5-5.8-3.4-10.7-5.7-15.5
		c-5-10.2-8.8-18.3-15.2-18.5c-2.6-0.1-6.1,1.1-7.5,3.6C226.4,96.5,226.9,99.7,228.6,100.6z"/>
	<g class="st7">
		<path class="st8" d="M144.6,101.3c-0.6,1.3-0.2,2.2,2.2,6.8c4.6,9,5.4,10,6.7,11.2c1.4,1.2,5.8,4.9,9,3.6c3.1-1.4,3.4-7.1,3.1-9.9
			c0-0.9-0.3-2.3-2.8-7c-3.3-6.3-5-9.5-7.4-10C151.6,95.3,145.9,97.9,144.6,101.3z"/>
		<path class="st8" d="M113.3,115.7c-0.6,1.3-0.2,2.2,2.2,6.8c4.6,9,5.4,10,6.7,11.2c1.4,1.2,5.8,4.9,9,3.6c3.1-1.4,3.4-7.1,3.1-9.9
			c0-0.9-0.3-2.3-2.8-7c-3.3-6.3-5-9.5-7.4-10C120.2,109.6,114.5,112.4,113.3,115.7z"/>
		<path class="st9" d="M146.4,100.2c-0.4,1.2-0.1,2.1,2.1,6.3c4.2,8.4,4.8,9.3,6,10.4c1.2,1.1,5.1,4.7,7.7,3.6
			c2.6-1.1,2.7-6.3,2.4-8.9c-0.1-0.8-0.4-2.2-2.6-6.5c-3-5.9-4.5-8.8-6.6-9.3C152.3,94.9,147.4,97.3,146.4,100.2z"/>
		<path class="st9" d="M115.6,114.6c-0.4,1.2-0.1,2.1,2.1,6.3c4.2,8.4,4.8,9.3,6,10.4c1.2,1.1,5.1,4.7,7.7,3.6
			c2.6-1.1,2.7-6.3,2.4-8.9c-0.1-0.8-0.4-2.2-2.6-6.5c-3-5.9-4.5-8.8-6.6-9.3C121.3,109.3,116.5,111.6,115.6,114.6z"/>
		<path class="st10" d="M163.3,116.5c-0.2,0.4-0.9,2.1-1.8,2c-0.8,0-1.4-1-1.8-1.8c-1-2.1-1.2-4-1.1-4.1c-0.3-5.8-7.5-8.8-6-12.7
			c0-0.2,0.6-1.5,1.6-1.8C158.3,97.1,165.7,111,163.3,116.5z"/>
		<path class="st10" d="M131.5,130.7c-0.2,0.4-0.9,2.1-1.8,2c-0.8,0-1.4-1-1.8-1.8c-1-2.1-1.2-4-1.1-4.1c-0.3-5.8-7.5-8.8-6-12.7
			c0-0.2,0.6-1.5,1.6-1.8C126.6,111.3,134,125.3,131.5,130.7z"/>
		<path class="st11" d="M154.2,103.4c-2.2,1.1-2.3,3-3.5,3c-1.4,0-2.7-2.2-2.4-4.2c0.2-1.6,1.5-2.6,2-3c0.4-0.3,2.5-2,4.8-1.4
			c2.4,0.6,3.6,3.5,2.8,4.6C157.3,103.3,156.1,102.5,154.2,103.4z"/>
		<path class="st11" d="M123.1,117.8c-2.2,1.1-2.3,3-3.5,3c-1.4,0-2.7-2.2-2.4-4.2c0.2-1.6,1.5-2.6,2-3c0.4-0.3,2.5-2,4.8-1.4
			c2.4,0.6,3.6,3.5,2.8,4.6C126.2,117.6,124.9,116.9,123.1,117.8z"/>
		<path class="st12" d="M165.8,156.1c-0.9,0.9-3.8,3.7-7.2,4.6c-4.4,1.1-8.6-1-9.8-1.6c-2.8-1.5-4.6-3.4-5.8-2.8
			c-0.8,0.4-0.4,1.5-1.5,2.4s-2,0.3-3.5,1.2c-1.2,0.7-1,1.3-2,2c-2.2,1.6-5.6,1.4-7.6,0.8c-2.7-0.8-3.7-2.6-4.6-2.2
			c-1.2,0.6-0.4,3.8-1.6,4.2c-0.5,0.1-1.1-0.2-1.4-0.5c-1.1-1.3,0.6-3.9,1.7-5.7c1.8-2.7,4.9-6.8,6.4-6.3c0.5,0.2,0.6,0.7,0.6,0.8
			c0.3,1.8-4.1,3.1-4.2,5c-0.1,2.5,8,5,9.9,3c0.6-0.7,0.3-1.6,1.3-2.3c1.1-0.8,2,0,3.5-0.5c1.9-0.7,1.8-2.5,3.4-3.3
			c2-0.9,4,1.1,6.6,1.8c5,1.4,11.6-2.1,14.6-5.1c6.7-6.7,7.8-18.7,8.6-17.9c0.5,0.6,0,6.1-1,10.5
			C170.4,151.1,167.4,154.4,165.8,156.1z"/>
		<path class="st13" d="M166.3,155c-0.9,0.9-3.8,3.7-7.2,4.6c-4.4,1.1-8.6-1-9.8-1.6c-2.8-1.5-4.6-3.4-5.8-2.8
			c-0.8,0.4-0.4,1.5-1.5,2.4c-1.1,0.9-2,0.3-3.5,1.2c-1.2,0.7-1,1.3-2,2c-2.2,1.6-5.6,1.4-7.6,0.8c-2.7-0.8-3.7-2.6-4.6-2.2
			c-1.2,0.6-0.4,3.8-1.6,4.2c-0.5,0.1-1.1-0.2-1.4-0.5c-1.1-1.3,0.6-3.9,1.7-5.7c1.8-2.7,4.9-6.8,6.4-6.3c0.5,0.2,0.6,0.7,0.6,0.8
			c0.3,1.8-4.1,3.1-4.2,5c-0.1,2.5,8,5,9.9,3c0.6-0.7,0.3-1.6,1.3-2.3c1.1-0.8,2,0,3.5-0.5c1.9-0.7,1.8-2.5,3.4-3.3
			c2-0.9,4,1.1,6.6,1.8c5,1.4,11.6-2.1,14.6-5.1c6.7-6.7,7.8-18.7,8.6-17.9c0.5,0.6,0,6.1-1,10.5C171,150,168,153.2,166.3,155z"/>
		<path class="st14" d="M225.4-11.8"/>
	</g>
	<path class="st15" d="M175.3,63.4c2.1,3.7,6.5,12.2,4.9,23c-2,13.7-12.3,21.8-18.7,26.8c-4.2,3.3-23,18-47.4,13.8
		c-4.7-0.9-25.4-4.5-33.2-22c-5.9-13.4-0.5-26.6,1.1-30.8c6.8-16.7,21.3-24.1,25.3-26s16.3-7.7,31.7-4.9c10.1,1.9,17.2,6.8,20.7,9.5
		"/>
	<path class="st16" d="M113.2,52.2c0.2,1.2,5.2,0.7,12.5,2.8c2.1,0.6,3.8,1.3,12.1,5.4c16.9,8.6,20,11,21.9,12.8
		c3.6,3.3,6.7,6.2,7.5,10.7c0.7,4.4-0.9,7.9-2.6,11.4c-5.3,11-13.7,15.9-12.9,17.3c0.6,0.9,4.6-0.4,8-2.3c8.2-4.5,16.6-14,16.8-26
		c0-5.1-1.4-9.2-1.9-10.6c-1.9-5.1-4.9-8.2-6.9-10.4c-4.2-4.4-8.2-6.6-12.3-8.8c-3.6-1.9-9.6-5.1-18.1-6.5c-6.7-1-11.4-0.4-12.9-0.1
		C119,48.8,112.9,50.8,113.2,52.2z"/>
	<path class="st4" d="M285.1,3"/>
	<path class="st15" d="M166.6,191.8c-5.6,16.2-9.1,20.3-7.4,21.5c4.4,3.2,37.6-17.4,53.4-49.2c9.8-19.6,10.4-38.2,11-55.5
		c0.2-4.8,0.5-18.2-2.4-35.9c-4.8-29.5-8.2-50.8-24.4-57.3c-16.5-6.6-40.6,4.8-40.7,10.4c-0.1,3.4,8.3,3.4,18.9,10.9
		c9.6,6.9,14,15.2,17.5,21.4c9.6,17.7,9.4,34.5,9.1,42.1c-0.3,8.2-0.6,20.5-7.7,34.2c-6.2,12.2-10,10.7-16.6,23.5
		C171.5,169.1,173.6,172,166.6,191.8z"/>
	<path class="st15" d="M59.5,127.2c0,0,5.4,6.1,9.7,12.3c2,2.8,7.4,10.7,5.9,20c-1.2,7.4-6.3,12.9-10.2,17
		c-7.6,8.1-14.7,10.6-14,13.2c0.7,2.3,7.1,2.2,9.6,2.1c2.5,0,10.6-0.2,18-5.6c8.5-6.2,10.1-15.2,11.4-21.3
		c0.8-3.7,2.9-14.7-3.6-25.7c-4.7-8-11.4-11.7-14.2-13.2c-6.5-3.5-15.2-5.8-16.3-4.2C55.3,122.7,56.8,124.1,59.5,127.2z"/>
	<path class="st15" d="M298,56.6"/>
</g>
<g id="Layer_2_1_">
</g>
</svg>
