<svg xmlns="http://www.w3.org/2000/svg" viewBox="0 0 270.5 270.5"><defs><style>.cls-1{fill:#4bd4f9;}.cls-2{fill:#2baf49;}</style></defs><title>murica-southmurica</title><g id="Layer_2" data-name="Layer 2"><g id="Layer_2-2" data-name="Layer 2"><g id="murica-southmurica"><rect class="cls-1" width="270.5" height="270.5"/><polygon class="cls-2" points="177.5 270.5 177.5 260.67 175.17 260.67 175.17 241.5 177.5 241.5 177.5 232.67 180.67 232.67 180.67 210.5 183.5 210.5 183.5 184 178.83 184 178.83 179 174.5 179 174.5 175.33 168.17 175.33 168.17 167.17 165.17 167.17 165.17 159.67 161.5 159.67 161.5 153.17 156 153.17 156 143.67 158.67 143.67 158.67 134.5 161.17 134.5 161.17 130.17 164.83 130.17 164.83 119.33 162.83 119.33 162.83 116.83 159.17 116.83 159.17 119.67 155 119.67 155 118 150 118 150 115 146.33 115 146.33 109.33 142 109.33 142 105 136.17 105 136.17 102.83 130.17 102.83 130.17 100.33 127 100.33 127 97.33 117 97.33 117 95.5 109.33 95.5 109.33 92.5 104.5 92.5 104.5 89.33 97 89.33 97 79.33 94.83 79.33 94.83 72.83 92.33 72.83 92.33 70.33 88.83 70.33 88.83 65.83 86.67 65.83 86.67 61.83 84.17 61.83 84.17 58 81.17 58 81.17 63.5 84.83 63.5 84.83 68.17 86.83 68.17 86.83 72.33 91 72.33 91 74.83 93.67 74.83 93.67 80 95.33 80 95.33 82.83 91.83 82.83 91.83 77 88 77 88 75 83.33 75 83.33 72.83 79 72.83 79 66.67 76.83 66.67 76.83 62.5 73.5 62.5 73.5 54.17 69.83 54.17 69.83 51 67 51 67 37.5 62 37.5 62 34.33 59.83 34.33 59.83 29.33 55.67 29.33 55.67 22.17 49.17 22.17 49.17 13.33 46 13.33 46 0 184.83 0 184.83 9.83 181.83 9.83 181.83 12.83 176 12.83 176 20.33 172.5 20.33 172.5 29.5 169.5 29.5 169.5 40.83 164.67 40.83 164.67 44.17 162.17 44.17 162.17 50.83 157.17 50.83 157.17 56.5 157.17 62.5 159.17 62.5 159.17 72.33 156 72.33 156 68.33 152.83 68.33 152.83 58 133 58 133 60.67 124 60.67 124 62.67 118.83 62.67 118.83 85.83 121 85.83 121 89.67 134.17 89.67 134.17 81.83 143.17 81.83 143.17 93.83 139 93.83 139 96.67 153.5 96.67 153.5 103.5 150.67 103.5 150.67 110.67 154.83 110.67 154.83 113.17 169.67 113.17 169.67 108.67 178.83 108.67 178.83 104.33 195.67 104.33 195.67 109.17 201.17 109.17 201.17 107.67 212.83 107.67 212.83 111.5 220.67 111.5 220.67 118.5 242.33 118.5 242.33 122.83 247.67 122.83 247.67 129.17 254 129.17 254 135.25 270.38 135.25 270.5 142.5 270.5 218.5 260.67 218.5 260.67 222 254.17 222 254.17 235 248.17 235 248.17 243.33 239.83 243.33 239.83 248.5 236.33 248.5 236.33 252.5 225.83 252.5 225.83 260.67 209 260.67 209 268 199.17 268 199.17 270.5 177.5 270.5"/></g></g></g></svg>