<svg xmlns="http://www.w3.org/2000/svg" viewBox="0 0 270.5 270.5"><defs><style>.cls-1{fill:#4bd4f9;}.cls-2{fill:#2baf49;}</style></defs><title>oceania</title><g id="Layer_2" data-name="Layer 2"><g id="Layer_2-2" data-name="Layer 2"><g id="oceania"><rect class="cls-1" width="270.5" height="270.5"/><polyline class="cls-2" points="131 270.5 131 263.75 126.88 263.75 126.88 252.63 119 252.63 119 248.13 110.25 248.13 110.25 242.5 100.75 242.5 100.75 270.5 131 270.5"/><polyline class="cls-2" points="91.5 270.5 91.5 251.13 89.38 251.13 89.38 239.75 85.5 239.75 85.5 222.38 77.5 222.38 77.5 214.25 75.38 214.25 75.38 200.13 77.88 200.13 77.88 185.5 83.44 185.5 83.44 176.13 96 176.13 96 172.63 105.5 172.63 105.5 168.13 115.38 168.13 115.38 165.75 117.5 165.75 117.5 158.25 121.63 158.25 121.63 153.88 113 153.88 113 158 101.5 158 101.5 154.63 96.38 154.63 96.38 149 90.75 149 90.75 140.63 81.88 140.63 81.88 129.13 88.38 129.13 88.38 126.13 97.75 126.13 97.75 118.88 117.5 118.88 117.5 112 126.13 112 126.13 114.88 120.75 114.88 120.75 120.75 126.13 120.75 130.5 120.75 130.5 113.5 143.63 113.5 143.63 106 149.5 106 149.5 97.5 155.25 97.5 155.25 80 158.25 80 158.25 76.63 161.75 76.63 161.75 58.75 165.88 58.75 165.88 39.25 163.38 39.25 163.38 29 159.13 29 159.13 42.25 161.63 42.25 161.63 53.5 158 53.5 158 71.5 152.75 71.5 152.75 93.25 140 93.25 140 100 129.13 100 129.13 103.13 123.25 103.13 123.25 104.38 118.75 104.38 118.75 107.38 116 107.38 116 109.38 112.25 109.38 112.25 111.5 104.38 111.5 104.38 105.13 108.5 105.13 108.5 99.88 117 99.88 117 96.5 113.25 96.5 113.25 92.75 110.5 92.75 110.5 86.63 98.25 86.63 94.75 86.63 94.75 92.38 90.13 92.38 90.13 96 84 96 84 92.75 80.38 92.75 80.38 85.5 84.13 85.5 84.13 89.5 90 89.5 90 83.25 86.75 83.25 86.75 75.88 75.38 75.88 75.38 63.5 66.5 63.5 66.5 50 29.5 50 29.5 57.5 18.5 57.5 18.5 46 11.5 46 11.5 57.5 0 57.5 0 270.5 91.5 270.5"/><polyline class="cls-2" points="223.83 270.5 207.17 270.5 207.17 267.67 190.83 267.67 190.83 262.33 185.5 262.33 185.5 256.5 174.5 256.5 174.5 253.33 170.83 253.33 170.83 246 177.17 246 177.17 242.5 187.5 242.5 187.5 247 195.83 247 195.83 250.67 206.83 250.67 206.83 253.67 220.83 253.67 220.83 258 226.5 258 226.5 266.67 223.83 266.67 223.83 270.5"/><polygon class="cls-2" points="144.5 84.67 138.5 84.67 138.5 88 131 88 131 78.67 125.83 78.67 125.83 72.67 122.5 72.67 122.5 69.33 117.5 69.33 117.5 61.33 121.83 61.33 121.83 58.67 126.5 58.67 126.5 62.67 136.44 62.67 136.44 58.67 136.44 50.67 143.17 50.67 143.17 44.67 151.5 44.67 151.5 50.67 147.17 50.67 147.17 54 151.5 54 151.5 59.33 142.83 59.33 142.83 66.33 147.5 66.33 147.5 73.33 141.5 73.33 141.5 81 144.46 81 144.5 84.67"/><polygon class="cls-2" points="95 58.25 90.25 58.25 90.25 55.38 82.5 55.38 82.5 47.63 94.25 47.63 94.25 42.25 98.63 42.25 98.63 35.75 108.63 35.75 108.63 33 117.5 33 117.5 36.63 121.5 36.63 121.5 42.25 115.25 42.25 115.25 49 104.88 49 104.88 54.13 95.13 54.13 95 58.25"/><polygon class="cls-2" points="5.13 57.5 5.13 53.63 9.88 53.63 9.88 49.38 5.13 49.38 5.13 45.63 3.13 45.63 3.13 40.38 9.25 40.38 9.25 35.38 17.25 35.38 17.25 37.63 28.13 37.63 28.13 32 21 32 21 28.38 15.63 28.38 15.63 22.63 0 22.63 0 57.5 5.13 57.5"/><polygon class="cls-2" points="24.25 22.63 18 22.63 18 18.88 13.25 18.88 13.25 14.38 6.88 14.38 6.88 8.88 0 8.88 0 0 7.75 0 7.75 2.63 13.25 2.63 13.25 5.5 17.75 5.5 17.75 11.31 22.88 11.31 22.88 14.63 31.63 14.63 31.63 21 24.27 21 24.25 22.63"/><polygon class="cls-2" points="192.5 67.17 192.5 48.67 183 48.67 183 39.17 176.83 39.17 176.83 29 181.5 29 181.5 20.83 170.5 20.83 170.5 6.33 177.17 6.33 177.17 0 260.83 0 260.83 4.17 253.67 4.17 253.67 10.83 247.5 10.83 247.5 17.83 244 17.83 244 40.33 247.5 40.33 247.5 49 242 49 242 53.33 240.17 53.33 240.17 57.67 244.5 57.67 244.5 66.33 239.5 66.33 239.5 71.83 233.83 71.83 233.83 69 226 69 226 72.83 216.33 72.83 216.33 76 198.5 76 198.5 69.17 192.49 69.17 192.5 67.17"/></g></g></g></svg>