<svg xmlns="http://www.w3.org/2000/svg" viewBox="0 0 270.5 270.5"><defs><style>.cls-1{fill:#4bd4f9;}.cls-2{fill:#2baf49;}</style></defs><title>southpacific</title><g id="Layer_2" data-name="Layer 2"><g id="Layer_2-2" data-name="Layer 2"><g id="southpacific"><rect class="cls-1" width="270.5" height="270.5" transform="translate(0 270.5) rotate(-90)"/><polygon class="cls-2" points="177.17 270.5 177.17 261.88 182.63 261.88 182.63 264.13 188 264.13 188 255.75 188 243.75 172.63 243.75 172.63 240.38 167.75 240.38 167.75 243.38 163.63 243.38 163.63 263.5 161.38 263.5 161.38 259.25 159 259.25 159 255.44 155.5 255.44 155.5 266.38 145 266.38 145 263.75 142.25 263.75 142.25 242.13 144.88 242.13 144.88 228.88 148.88 228.88 148.88 223.13 152.5 223.13 152.5 219.13 158.38 219.13 158.38 214.75 160.63 214.75 160.63 210 165.88 210 165.88 222.63 159.88 222.63 159.88 230.25 162.38 230.25 162.38 235.88 172.5 235.88 172.5 233.88 177.13 233.88 177.13 227.13 190.13 227.13 190.13 217.88 193.5 217.88 193.5 214 200.88 214 200.88 206.38 206 206.38 206 202.25 232 202.25 232 206.88 244.75 206.88 244.75 212.25 257.25 212.25 257.25 217.75 266.25 217.75 266.25 224.13 270.5 224.13 270.5 270.5 177.17 270.5"/><polygon class="cls-2" points="270.5 164.75 267.13 164.75 267.13 160.5 260.75 160.5 260.75 155.5 253 155.5 253 151.5 249.25 151.5 249.25 148.25 239 148.25 239 152 233.5 152 233.5 154.25 228.13 154.25 228.13 149.38 230.38 149.38 230.38 145.13 236.25 145.13 236.25 142.5 241.38 142.5 241.38 137.75 248.25 137.75 248.25 140.75 253 140.75 253 142.63 257.25 142.63 257.25 146.63 262.88 146.63 262.88 148.88 266.5 148.88 266.5 151.25 270.5 151.25 270.5 164.75"/></g></g></g></svg>